<svg xmlns="http://www.w3.org/2000/svg" xmlns:xlink="http://www.w3.org/1999/xlink" width="1024" zoomAndPan="magnify" viewBox="0 0 768 767.999994" height="1024" preserveAspectRatio="xMidYMid meet" version="1.0"><rect x="-76.8" width="921.6" fill="#ffffff" y="-76.799999" height="921.599993" fill-opacity="1"/><rect x="-76.8" width="921.6" fill="#ffffff" y="-76.799999" height="921.599993" fill-opacity="1"/><rect x="-76.8" width="921.6" fill="#000000" y="-76.799999" height="921.599993" fill-opacity="1"/><path fill="#ffffff" d="M 101.144531 210.765625 C 102.582031 210.722656 104.058594 210.839844 105.496094 210.894531 C 182.816406 213.792969 250.992188 250.296875 302.789062 307.351562 C 277.996094 307.460938 248.304688 308.582031 223.535156 310.167969 C 238.542969 314.769531 255.519531 317.511719 270.246094 322.457031 C 213.980469 334.171875 167.46875 360.835938 128.128906 402.25 C 133.203125 378.496094 148.738281 352.480469 163.5625 333.515625 C 167.738281 328.175781 172.460938 323.117188 176.746094 317.78125 C 170.25 319.847656 163.824219 322.128906 157.480469 324.621094 C 116.535156 341.726562 88.640625 362.355469 60.523438 396.839844 C 65.464844 359.839844 83.074219 329.300781 106.328125 300.808594 C 93.15625 273.691406 79.996094 249.183594 57.1875 228.816406 C 50.359375 222.722656 43.09375 217.335938 35.839844 211.769531 L 36.527344 211.792969 C 67.167969 213.164062 112.640625 234.964844 136.183594 254.214844 C 145.890625 262.148438 154.574219 271.027344 162.984375 280.3125 C 166.296875 279.585938 169.839844 278.980469 173.1875 278.351562 C 159.304688 256.757812 141.109375 238.863281 120.441406 223.761719 C 114.21875 219.214844 107.210938 215.359375 101.144531 210.765625 Z M 101.144531 210.765625 " fill-opacity="1" fill-rule="nonzero"/><path fill="#000000" d="M 210.519531 256.539062 C 212.105469 257.308594 217.863281 262.109375 219.546875 263.421875 C 222.855469 265.957031 226.257812 268.375 229.738281 270.667969 C 233.785156 273.324219 237.609375 275.628906 241.910156 277.867188 C 243.984375 278.949219 247.644531 280.171875 249.21875 281.304688 L 249.121094 281.960938 L 247.539062 283.035156 C 244.144531 284.492188 242.035156 284.824219 238.417969 285.382812 C 230.976562 280.75 216.171875 263.394531 210.519531 256.539062 Z M 210.519531 256.539062 " fill-opacity="1" fill-rule="nonzero"/><path fill="#ffffff" d="M 122.675781 354.757812 C 123.039062 355.710938 119.171875 363.90625 118.625 365.566406 C 100.101562 421.664062 127.710938 459.667969 179.34375 478.40625 C 179.925781 477.4375 180.515625 476.476562 181.113281 475.519531 C 194.664062 453.757812 215.894531 437.984375 239.773438 428.960938 C 246.273438 426.503906 253.808594 424.773438 260.574219 423.207031 C 255.171875 429.742188 249.675781 437.265625 244.320312 443.988281 C 232.585938 458.722656 221.109375 473.410156 210.011719 488.621094 C 210.539062 491.566406 211.449219 495.125 212.125 498.089844 C 217.007812 518.261719 222.671875 538.066406 227.59375 558.144531 C 222.097656 554.492188 217.527344 552.050781 212.304688 547.769531 C 192.746094 531.742188 182.679688 513.210938 176.699219 489.28125 C 170.046875 488.011719 165.082031 487.632812 158.195312 485.882812 C 138.746094 480.789062 121.011719 470.589844 106.832031 456.34375 C 89.1875 438.328125 81.894531 415.996094 82.140625 391.117188 C 90.867188 378.863281 109.644531 362.039062 122.675781 354.757812 Z M 122.675781 354.757812 " fill-opacity="1" fill-rule="nonzero"/><path fill="#ffffff" d="M 438.886719 256.492188 L 439.222656 256.84375 C 439.546875 258.921875 438.625 273.609375 438.5 276.503906 C 438.054688 288.703125 437.6875 300.902344 437.398438 313.105469 C 442.894531 305.863281 455.320312 294.960938 465.207031 297.933594 C 491.054688 305.707031 480.125 338.019531 483.839844 357.644531 C 484.976562 363.644531 486.433594 367.304688 489.746094 372.429688 C 480.402344 373.402344 463.128906 372.898438 452.992188 373.027344 C 454.652344 369.480469 457.582031 362.894531 458.199219 359.140625 C 459.695312 350.074219 460.078125 327.617188 458.246094 318.941406 C 458.203125 318.792969 458.164062 318.644531 458.109375 318.5 C 457.253906 316.179688 455.714844 314.433594 453.429688 313.464844 C 450.445312 312.195312 446.734375 311.609375 443.679688 312.941406 C 441.011719 314.101562 439.222656 316.8125 438.296875 319.476562 C 436.339844 325.09375 436.730469 351.921875 438.050781 358.117188 C 439.1875 363.4375 441.320312 368.203125 443.738281 373.039062 L 407.273438 373.082031 C 413.410156 359.625 413.214844 357.507812 413.425781 343.082031 C 413.550781 334.910156 413.597656 326.742188 413.566406 318.570312 C 413.535156 310.566406 413.722656 301.296875 413.03125 293.347656 C 412.5 287.277344 407.59375 283.003906 403.023438 279.554688 C 421.5 278.25 429.160156 270.964844 438.886719 256.492188 Z M 438.886719 256.492188 " fill-opacity="1" fill-rule="nonzero"/><path fill="#ffffff" d="M 357.226562 265.089844 C 373.574219 263.964844 388.296875 268.867188 402.738281 276.207031 C 398.359375 284.554688 392.457031 292.617188 387.953125 301.605469 C 382.523438 290.097656 372.210938 270.121094 358.410156 268.378906 C 346.5625 266.882812 339.824219 284.035156 348.003906 292.554688 C 362.390625 307.53125 385.28125 311.570312 399.367188 327.054688 C 409.660156 338.371094 406.582031 355.9375 394.855469 364.9375 C 382.574219 374.605469 370.207031 375.269531 355.292969 373.921875 C 340.714844 371.707031 326.816406 366.25 314.621094 357.957031 C 320.082031 350.1875 325.042969 342.242188 330.726562 334.429688 C 339.1875 349.277344 350.730469 372.703125 370.703125 370.5625 C 375.398438 370.0625 382.082031 367.25 384.984375 363.421875 C 394.21875 351.25 377.179688 342.941406 368.734375 337.734375 C 357.046875 330.929688 346.453125 325.789062 335.695312 317.402344 C 322.136719 306.832031 320.332031 291.171875 330.507812 277.515625 C 336.746094 269.425781 347.140625 266.132812 357.226562 265.089844 Z M 357.226562 265.089844 " fill-opacity="1" fill-rule="nonzero"/><path fill="#ffffff" d="M 666.722656 253.816406 C 667.195312 255.175781 666.984375 257.195312 666.910156 258.640625 C 665.453125 286.136719 665.511719 313.652344 665.339844 341.183594 C 670.589844 335.953125 676.308594 331.167969 681.503906 325.757812 C 692.160156 314.660156 685.878906 307.296875 676.699219 298.710938 C 688.664062 298.460938 704.710938 299.246094 716.15625 298.28125 C 705.148438 306.261719 698.359375 311.816406 688.230469 321.039062 C 693.902344 330.042969 698.820312 339.109375 704.078125 348.332031 C 708.59375 356.261719 714.078125 367.375 721.59375 372.597656 L 721.675781 372.667969 L 721.609375 372.988281 C 708.671875 373.089844 695.714844 372.828125 682.789062 373.070312 C 685.476562 359.785156 678.300781 350.472656 672.066406 338.691406 C 669.859375 340.523438 667.667969 342.378906 665.492188 344.246094 C 665.359375 358.597656 665.238281 360.136719 671.988281 372.964844 L 635.28125 373.070312 C 637.605469 368.152344 640.179688 363.28125 641.097656 357.859375 C 642.507812 349.546875 642.898438 295.621094 641.164062 288.472656 C 639.929688 283.390625 636.765625 278.957031 633.777344 274.777344 C 649.410156 267.660156 657.195312 269.480469 666.722656 253.816406 Z M 666.722656 253.816406 " fill-opacity="1" fill-rule="nonzero"/><path fill="#ffffff" d="M 528.320312 296.359375 C 538.199219 296.59375 547.035156 299.40625 552.664062 308.097656 C 557.285156 315.242188 557.214844 324.160156 557.195312 332.363281 L 557.132812 348.253906 C 557.105469 356.324219 556.132812 365.84375 567.121094 360.164062 C 564.566406 362.269531 561.660156 364.992188 559.285156 367.367188 C 554.738281 371.910156 550.058594 375.835938 543.109375 373.761719 C 537.984375 372.230469 535.789062 367.710938 533.421875 363.308594 C 530.324219 365.785156 525.566406 370.207031 522.449219 372.007812 C 519.730469 376.410156 503.0625 378.9375 501.386719 372.644531 C 498.203125 370.472656 493.464844 367.617188 492.5 363.5 C 486.714844 338.769531 515 330.925781 532.96875 325.613281 C 533.0625 313.582031 531.085938 307.859375 528.320312 296.359375 Z M 528.320312 296.359375 " fill-opacity="1" fill-rule="nonzero"/><path fill="#ffffff" d="M 501.386719 372.644531 C 508.929688 375.582031 515.003906 374.664062 522.449219 372.007812 C 519.730469 376.410156 503.0625 378.9375 501.386719 372.644531 Z M 501.386719 372.644531 " fill-opacity="1" fill-rule="nonzero"/><path fill="#000000" d="M 532.773438 330.855469 C 533.585938 332.121094 533.339844 357.015625 533.347656 360.609375 C 527.007812 361.363281 523.609375 361.464844 518.261719 357.511719 C 505.808594 344.21875 521.890625 335.652344 532.773438 330.855469 Z M 532.773438 330.855469 " fill-opacity="1" fill-rule="nonzero"/><path fill="#ffffff" d="M 567.882812 310.3125 C 584.921875 306.453125 594.109375 302.019531 602.636719 285.828125 C 602.675781 294.148438 601.152344 314.609375 600.253906 323.152344 C 609.515625 307.578125 617.289062 297.574219 637.164062 300.523438 C 634.269531 309.953125 632.164062 320.242188 629.171875 329.308594 C 598.789062 301.164062 594.867188 348.855469 603.835938 367.332031 C 604.859375 369.449219 605.949219 371.070312 607.269531 373.007812 C 599.773438 376.875 590.011719 375.460938 581.734375 375.289062 C 578.738281 375.230469 572.511719 374.960938 570.675781 372.878906 L 569.992188 372.449219 C 571.617188 369.074219 573.863281 366.097656 574.792969 362.421875 C 576.933594 353.949219 578.628906 324.410156 574.476562 317.398438 C 572.828125 314.617188 570.324219 312.382812 567.882812 310.3125 Z M 567.882812 310.3125 " fill-opacity="1" fill-rule="nonzero"/><path fill="#ffffff" d="M 570.675781 372.878906 C 583.15625 373.625 594.980469 372.65625 607.269531 373.007812 C 599.773438 376.875 590.011719 375.460938 581.734375 375.289062 C 578.738281 375.230469 572.511719 374.960938 570.675781 372.878906 Z M 570.675781 372.878906 " fill-opacity="1" fill-rule="nonzero"/><path fill="#ffffff" d="M 517.832031 297.1875 C 519.15625 297.082031 519.210938 296.828125 519.996094 297.433594 C 519.257812 299.351562 513.894531 308.683594 512.589844 311 C 508.828125 317.679688 504.476562 327.21875 500.265625 333.300781 L 499.878906 332.734375 C 498.277344 325.046875 497.152344 316.027344 495.730469 308.109375 C 503.390625 303.007812 508.847656 299.738281 517.832031 297.1875 Z M 517.832031 297.1875 " fill-opacity="1" fill-rule="nonzero"/></svg>