<svg xmlns="http://www.w3.org/2000/svg" xmlns:xlink="http://www.w3.org/1999/xlink" width="1024" zoomAndPan="magnify" viewBox="0 0 768 383.999986" height="512" preserveAspectRatio="xMidYMid meet" version="1.0"><rect x="-76.8" width="921.6" fill="#ffffff" y="-38.399999" height="460.799983" fill-opacity="1"/><rect x="-76.8" width="921.6" fill="#ffffff" y="-38.399999" height="460.799983" fill-opacity="1"/><rect x="-76.8" width="921.6" fill="#000000" y="-38.399999" height="460.799983" fill-opacity="1"/><path fill="#ffffff" d="M 101.144531 18.765625 C 102.582031 18.722656 104.058594 18.839844 105.496094 18.890625 C 182.816406 21.792969 250.992188 58.296875 302.789062 115.351562 C 277.996094 115.460938 248.304688 116.582031 223.535156 118.167969 C 238.542969 122.769531 255.519531 125.511719 270.246094 130.457031 C 213.980469 142.171875 167.46875 168.835938 128.128906 210.25 C 133.203125 186.496094 148.738281 160.480469 163.5625 141.515625 C 167.738281 136.175781 172.460938 131.117188 176.746094 125.78125 C 170.25 127.847656 163.824219 130.128906 157.480469 132.621094 C 116.535156 149.726562 88.640625 170.355469 60.523438 204.839844 C 65.464844 167.839844 83.074219 137.300781 106.328125 108.808594 C 93.15625 81.691406 79.996094 57.183594 57.1875 36.816406 C 50.359375 30.722656 43.09375 25.335938 35.839844 19.769531 L 36.527344 19.792969 C 67.167969 21.164062 112.640625 42.964844 136.183594 62.214844 C 145.890625 70.148438 154.574219 79.027344 162.984375 88.3125 C 166.296875 87.585938 169.839844 86.980469 173.1875 86.351562 C 159.304688 64.757812 141.109375 46.863281 120.441406 31.761719 C 114.21875 27.214844 107.210938 23.359375 101.144531 18.765625 Z M 101.144531 18.765625 " fill-opacity="1" fill-rule="nonzero"/><path fill="#000000" d="M 210.519531 64.539062 C 212.105469 65.308594 217.863281 70.109375 219.546875 71.421875 C 222.855469 73.957031 226.257812 76.375 229.738281 78.667969 C 233.785156 81.324219 237.609375 83.628906 241.910156 85.867188 C 243.984375 86.949219 247.644531 88.171875 249.21875 89.304688 L 249.121094 89.960938 L 247.539062 91.035156 C 244.144531 92.492188 242.035156 92.824219 238.417969 93.382812 C 230.976562 88.75 216.171875 71.394531 210.519531 64.539062 Z M 210.519531 64.539062 " fill-opacity="1" fill-rule="nonzero"/><path fill="#ffffff" d="M 122.675781 162.757812 C 123.039062 163.710938 119.171875 171.90625 118.625 173.566406 C 100.101562 229.664062 127.710938 267.667969 179.34375 286.40625 C 179.925781 285.4375 180.515625 284.476562 181.113281 283.519531 C 194.664062 261.757812 215.894531 245.984375 239.773438 236.960938 C 246.273438 234.503906 253.808594 232.773438 260.574219 231.207031 C 255.171875 237.742188 249.675781 245.265625 244.320312 251.988281 C 232.585938 266.722656 221.109375 281.410156 210.011719 296.621094 C 210.539062 299.566406 211.449219 303.125 212.125 306.089844 C 217.007812 326.261719 222.671875 346.066406 227.59375 366.144531 C 222.097656 362.492188 217.527344 360.050781 212.304688 355.769531 C 192.746094 339.742188 182.679688 321.210938 176.699219 297.28125 C 170.046875 296.011719 165.082031 295.632812 158.195312 293.882812 C 138.746094 288.789062 121.011719 278.589844 106.832031 264.34375 C 89.1875 246.328125 81.894531 223.996094 82.140625 199.117188 C 90.867188 186.863281 109.644531 170.039062 122.675781 162.757812 Z M 122.675781 162.757812 " fill-opacity="1" fill-rule="nonzero"/><path fill="#ffffff" d="M 438.886719 64.492188 L 439.222656 64.84375 C 439.546875 66.921875 438.625 81.609375 438.5 84.503906 C 438.054688 96.703125 437.6875 108.902344 437.398438 121.105469 C 442.894531 113.863281 455.320312 102.960938 465.207031 105.933594 C 491.054688 113.707031 480.125 146.019531 483.839844 165.644531 C 484.976562 171.640625 486.433594 175.304688 489.746094 180.429688 C 480.402344 181.402344 463.128906 180.898438 452.992188 181.027344 C 454.652344 177.480469 457.582031 170.894531 458.199219 167.140625 C 459.695312 158.074219 460.078125 135.617188 458.246094 126.941406 C 458.203125 126.792969 458.164062 126.644531 458.109375 126.5 C 457.253906 124.179688 455.714844 122.433594 453.429688 121.464844 C 450.445312 120.195312 446.734375 119.609375 443.679688 120.941406 C 441.011719 122.101562 439.222656 124.8125 438.296875 127.476562 C 436.339844 133.09375 436.730469 159.921875 438.050781 166.117188 C 439.1875 171.4375 441.320312 176.203125 443.738281 181.039062 L 407.273438 181.082031 C 413.410156 167.625 413.214844 165.507812 413.425781 151.082031 C 413.550781 142.910156 413.597656 134.742188 413.566406 126.570312 C 413.535156 118.566406 413.722656 109.296875 413.03125 101.347656 C 412.5 95.277344 407.59375 91.003906 403.023438 87.554688 C 421.5 86.25 429.160156 78.964844 438.886719 64.492188 Z M 438.886719 64.492188 " fill-opacity="1" fill-rule="nonzero"/><path fill="#ffffff" d="M 357.226562 73.089844 C 373.574219 71.964844 388.296875 76.867188 402.738281 84.207031 C 398.359375 92.554688 392.457031 100.617188 387.953125 109.605469 C 382.523438 98.097656 372.210938 78.121094 358.410156 76.378906 C 346.5625 74.882812 339.824219 92.035156 348.003906 100.554688 C 362.390625 115.53125 385.28125 119.570312 399.367188 135.054688 C 409.660156 146.371094 406.582031 163.9375 394.855469 172.9375 C 382.574219 182.605469 370.207031 183.269531 355.292969 181.921875 C 340.714844 179.707031 326.816406 174.25 314.621094 165.957031 C 320.082031 158.1875 325.042969 150.242188 330.726562 142.429688 C 339.1875 157.277344 350.730469 180.703125 370.703125 178.5625 C 375.398438 178.0625 382.082031 175.25 384.984375 171.421875 C 394.21875 159.25 377.179688 150.941406 368.734375 145.734375 C 357.046875 138.929688 346.453125 133.789062 335.695312 125.402344 C 322.136719 114.832031 320.332031 99.171875 330.507812 85.515625 C 336.746094 77.425781 347.140625 74.132812 357.226562 73.089844 Z M 357.226562 73.089844 " fill-opacity="1" fill-rule="nonzero"/><path fill="#ffffff" d="M 666.722656 61.816406 C 667.195312 63.175781 666.984375 65.195312 666.910156 66.640625 C 665.453125 94.136719 665.511719 121.652344 665.339844 149.183594 C 670.589844 143.953125 676.308594 139.167969 681.503906 133.757812 C 692.160156 122.660156 685.878906 115.296875 676.699219 106.710938 C 688.664062 106.460938 704.710938 107.246094 716.15625 106.28125 C 705.148438 114.261719 698.359375 119.816406 688.230469 129.039062 C 693.902344 138.042969 698.820312 147.109375 704.078125 156.332031 C 708.59375 164.261719 714.078125 175.375 721.59375 180.597656 L 721.675781 180.667969 L 721.609375 180.988281 C 708.671875 181.089844 695.714844 180.828125 682.789062 181.070312 C 685.476562 167.785156 678.300781 158.472656 672.066406 146.691406 C 669.859375 148.523438 667.667969 150.378906 665.492188 152.246094 C 665.359375 166.597656 665.238281 168.136719 671.988281 180.964844 L 635.28125 181.070312 C 637.605469 176.152344 640.179688 171.28125 641.097656 165.859375 C 642.507812 157.546875 642.898438 103.621094 641.164062 96.472656 C 639.929688 91.390625 636.765625 86.957031 633.777344 82.777344 C 649.410156 75.660156 657.195312 77.480469 666.722656 61.816406 Z M 666.722656 61.816406 " fill-opacity="1" fill-rule="nonzero"/><path fill="#ffffff" d="M 528.320312 104.359375 C 538.199219 104.59375 547.035156 107.40625 552.664062 116.097656 C 557.285156 123.242188 557.214844 132.160156 557.195312 140.363281 L 557.132812 156.253906 C 557.105469 164.324219 556.132812 173.84375 567.121094 168.164062 C 564.566406 170.269531 561.660156 172.992188 559.285156 175.367188 C 554.738281 179.910156 550.058594 183.835938 543.109375 181.761719 C 537.984375 180.230469 535.789062 175.710938 533.421875 171.308594 C 530.324219 173.785156 525.566406 178.207031 522.449219 180.007812 C 519.730469 184.410156 503.0625 186.9375 501.386719 180.644531 C 498.203125 178.472656 493.464844 175.617188 492.5 171.5 C 486.714844 146.769531 515 138.925781 532.96875 133.613281 C 533.0625 121.582031 531.085938 115.859375 528.320312 104.359375 Z M 528.320312 104.359375 " fill-opacity="1" fill-rule="nonzero"/><path fill="#ffffff" d="M 501.386719 180.644531 C 508.929688 183.582031 515.003906 182.664062 522.449219 180.007812 C 519.730469 184.410156 503.0625 186.9375 501.386719 180.644531 Z M 501.386719 180.644531 " fill-opacity="1" fill-rule="nonzero"/><path fill="#000000" d="M 532.773438 138.855469 C 533.585938 140.121094 533.339844 165.015625 533.347656 168.609375 C 527.007812 169.363281 523.609375 169.464844 518.261719 165.511719 C 505.808594 152.21875 521.890625 143.652344 532.773438 138.855469 Z M 532.773438 138.855469 " fill-opacity="1" fill-rule="nonzero"/><path fill="#ffffff" d="M 567.882812 118.3125 C 584.921875 114.453125 594.109375 110.019531 602.636719 93.828125 C 602.675781 102.148438 601.152344 122.609375 600.253906 131.152344 C 609.515625 115.578125 617.289062 105.574219 637.164062 108.523438 C 634.269531 117.953125 632.164062 128.242188 629.171875 137.308594 C 598.789062 109.164062 594.867188 156.855469 603.835938 175.332031 C 604.859375 177.449219 605.949219 179.070312 607.269531 181.007812 C 599.773438 184.875 590.011719 183.460938 581.734375 183.289062 C 578.738281 183.230469 572.511719 182.960938 570.675781 180.878906 L 569.992188 180.449219 C 571.617188 177.074219 573.863281 174.097656 574.792969 170.421875 C 576.933594 161.949219 578.628906 132.410156 574.476562 125.398438 C 572.828125 122.617188 570.324219 120.382812 567.882812 118.3125 Z M 567.882812 118.3125 " fill-opacity="1" fill-rule="nonzero"/><path fill="#ffffff" d="M 570.675781 180.878906 C 583.15625 181.625 594.980469 180.65625 607.269531 181.007812 C 599.773438 184.875 590.011719 183.460938 581.734375 183.289062 C 578.738281 183.230469 572.511719 182.960938 570.675781 180.878906 Z M 570.675781 180.878906 " fill-opacity="1" fill-rule="nonzero"/><path fill="#ffffff" d="M 517.832031 105.1875 C 519.15625 105.082031 519.210938 104.828125 519.996094 105.433594 C 519.257812 107.351562 513.894531 116.683594 512.589844 119 C 508.828125 125.679688 504.476562 135.21875 500.265625 141.300781 L 499.878906 140.734375 C 498.277344 133.046875 497.152344 124.027344 495.730469 116.109375 C 503.390625 111.007812 508.847656 107.738281 517.832031 105.1875 Z M 517.832031 105.1875 " fill-opacity="1" fill-rule="nonzero"/></svg>